<svg width="385" height="354" viewBox="0 0 385 354" fill="none" xmlns="http://www.w3.org/2000/svg">
<path d="M384.369 0.375945H295.609V353.046H384.369V0.375945Z" fill="#438EC1"/>
<path d="M384.369 99.9859H295.609V353.056H384.369V99.9859Z" fill="#0A0118"/>
<path d="M176.689 0.375945C79.2994 0.375945 0.359375 79.3159 0.359375 176.716C0.359375 274.116 79.3094 353.046 176.699 353.046C274.089 353.046 353.039 274.096 353.039 176.716C353.039 79.3359 274.079 0.375945 176.689 0.375945ZM176.689 266.496C127.099 266.496 86.8994 226.296 86.8994 176.716C86.8994 127.136 127.099 86.9259 176.689 86.9259C226.279 86.9259 266.479 127.126 266.479 176.716C266.479 226.306 226.279 266.496 176.689 266.496Z" fill="#00FFE0"/>
</svg>
